<?xml version="1.0" standalone="no"?>
<!DOCTYPE svg PUBLIC "-//W3C//DTD SVG 20010904//EN"
 "http://www.w3.org/TR/2001/REC-SVG-20010904/DTD/svg10.dtd">
<svg version="1.0" xmlns="http://www.w3.org/2000/svg"
 width="759.000000pt" height="481.000000pt" viewBox="0 0 759.000000 481.000000"
 preserveAspectRatio="xMidYMid meet">

<g transform="translate(0.000000,481.000000) scale(0.100000,-0.100000)"
fill="#000000" stroke="none">
<path d="M32 4803 l-32 -4 0 -2390 0 -2389 33 1 c17 1 24 3 14 6 -16 4 -17
114 -15 2156 1 1184 3 2127 5 2097 3 -40 7 -50 14 -40 7 11 9 2 7 -32 -2 -26
0 -44 4 -40 4 4 8 25 10 47 2 31 7 40 23 42 16 1 16 1 2 -3 -12 -4 -17 -15
-16 -37 0 -27 2 -29 9 -12 7 17 9 17 9 3 1 -26 21 -22 22 5 0 12 5 31 10 42 9
18 9 18 5 -3 -3 -18 2 -25 20 -33 33 -12 84 -12 84 1 0 6 -16 10 -35 10 -19 0
-35 5 -35 10 0 6 31 10 74 10 41 0 78 5 81 10 3 6 21 10 40 10 21 0 35 5 37
14 6 25 78 -13 78 -41 0 -30 14 -29 37 2 10 14 29 27 42 30 29 5 40 15 18 15
-10 0 -17 7 -17 15 0 9 10 15 26 15 14 0 35 5 46 11 15 8 19 8 14 0 -12 -19
45 -13 61 7 8 9 12 12 9 5 -11 -21 6 -43 34 -43 15 0 33 -7 40 -15 12 -14 16
-13 36 6 13 12 22 31 21 42 -1 13 5 23 16 25 9 2 17 -2 17 -8 0 -12 24 -40 35
-40 3 0 3 5 0 10 -3 6 -2 10 4 10 5 0 12 -4 15 -8 3 -5 19 -7 35 -4 27 4 28 6
16 19 -27 27 -17 35 39 29 44 -5 58 -3 77 14 21 17 22 21 9 30 -8 5 -10 10 -5
10 16 0 31 -13 38 -34 5 -13 12 -16 25 -10 9 4 40 8 67 9 53 1 115 24 65 25
-37 0 -10 20 33 24 20 2 44 9 52 16 12 10 21 10 41 1 14 -6 23 -15 19 -20 -3
-5 8 -9 24 -9 20 1 28 5 23 12 -11 18 -11 36 0 43 7 3 8 1 4 -5 -4 -7 -1 -12
6 -12 10 0 10 -2 -1 -9 -9 -6 -10 -11 -2 -15 6 -4 14 0 17 8 3 9 17 16 29 16
18 0 23 -5 21 -23 -3 -20 1 -23 30 -23 18 0 30 4 28 8 -3 5 -1 8 3 8 5 0 14
-9 21 -21 20 -32 47 -20 47 21 0 34 1 35 35 32 19 -2 39 -8 44 -13 13 -12 29
-12 22 0 -3 5 1 12 9 15 13 5 14 10 5 28 -11 22 -10 22 4 4 19 -23 21 -51 4
-40 -8 5 -9 -2 -4 -26 8 -41 14 -49 26 -30 14 22 12 33 -6 26 -10 -4 -14 -1
-11 6 2 7 13 13 25 13 28 1 33 8 35 47 1 18 6 31 12 28 6 -3 9 -9 7 -14 -2 -5
5 -17 14 -27 9 -11 13 -19 9 -19 -4 0 -1 -8 8 -18 10 -10 14 -22 10 -27 -5 -4
2 -2 15 4 12 6 22 9 22 5 0 -3 6 -1 13 5 8 6 18 7 22 3 5 -4 5 -2 2 4 -4 7 2
14 14 17 16 4 19 2 14 -16 -5 -21 -5 -21 6 1 13 24 39 30 39 10 0 -9 3 -10 8
-2 9 14 92 13 92 -1 0 -5 5 -3 10 5 8 13 13 13 31 2 11 -8 18 -9 14 -3 -3 6 1
11 10 11 10 0 14 -5 9 -12 -5 -10 -4 -10 6 -1 10 9 18 8 36 -3 20 -14 23 -14
32 2 6 10 12 13 16 6 3 -5 16 -8 29 -6 l22 5 -22 -10 c-23 -10 -32 -31 -13
-31 6 0 10 5 10 10 0 6 5 10 11 10 5 0 8 -4 5 -8 -8 -13 36 -8 59 7 13 8 14
11 3 7 -10 -3 -18 2 -21 14 -4 16 -12 19 -43 15 -22 -3 -34 -2 -29 3 24 17 12
48 -17 43 -4 0 -5 6 -1 15 4 10 9 12 16 5 7 -7 14 -5 22 6 11 14 12 14 12 -1
0 -9 -3 -16 -7 -16 -11 0 -9 -39 2 -46 7 -4 8 -2 4 4 -4 7 10 12 41 14 28 2
47 8 46 14 -1 6 10 17 25 23 l27 13 -22 -22 c-13 -11 -23 -24 -23 -28 0 -14
24 -32 43 -32 12 0 17 -5 14 -14 -4 -10 0 -12 15 -8 15 4 17 7 6 13 -10 7 -9
9 3 9 9 0 20 -7 23 -16 4 -10 2 -13 -6 -8 -6 4 -8 3 -5 -4 5 -6 0 -8 -13 -5
-11 3 -20 1 -20 -5 0 -5 11 -9 25 -9 14 0 25 4 25 9 0 5 6 6 13 2 9 -6 9 -4
-1 8 -16 20 -9 24 43 26 30 2 36 0 25 -8 -13 -8 -13 -10 3 -11 26 -2 31 -4 45
-13 12 -7 12 -4 2 14 -6 12 -9 24 -6 28 3 3 6 0 6 -5 0 -6 8 -10 18 -8 26 4
35 -6 17 -19 -15 -10 -14 -12 4 -12 11 0 17 4 15 8 -3 4 -1 8 5 8 5 0 13 -5
16 -10 4 -6 10 -8 15 -5 5 3 11 1 15 -5 11 -19 41 -11 41 11 0 19 -1 19 -13 3
-14 -19 -26 -15 -18 7 3 9 21 14 48 14 44 0 58 -7 43 -22 -5 -5 -6 -3 -2 5 4
6 2 12 -3 12 -16 0 -13 -16 6 -31 9 -8 14 -9 10 -3 -4 7 1 15 10 18 11 5 13
10 6 17 -15 15 -4 49 16 49 14 0 14 2 1 10 -8 5 -13 10 -10 11 3 0 14 3 25 6
11 3 47 7 80 10 43 3 56 1 45 -6 -8 -6 -10 -11 -5 -11 6 0 11 -12 11 -28 1
-15 -1 -21 -3 -14 -7 17 -43 15 -43 -3 0 -8 -6 -15 -14 -15 -8 0 -17 -4 -20
-9 -3 -5 15 -8 39 -7 25 0 45 5 45 9 0 5 6 2 14 -6 15 -15 76 -12 76 4 0 5 7
9 15 9 8 0 15 -4 15 -10 0 -5 5 -10 11 -10 5 0 7 5 3 11 -4 7 -1 10 7 7 8 -3
13 -12 11 -19 -3 -10 1 -9 15 2 10 9 24 14 32 11 9 -3 11 0 6 8 -6 9 -3 9 14
1 23 -13 27 -31 10 -48 -9 -9 -7 -11 7 -9 11 2 18 10 17 18 -2 8 6 14 17 15
11 1 18 -2 16 -6 -3 -4 1 -8 9 -8 8 0 12 4 9 9 -3 5 2 19 13 30 12 14 14 22 6
25 -9 3 -9 10 -1 29 14 31 28 31 28 0 0 -13 6 -26 13 -29 9 -3 11 6 9 35 -3
22 1 45 7 51 8 8 11 4 11 -15 0 -19 5 -27 18 -27 9 1 27 -2 40 -6 15 -5 22 -3
22 5 0 7 11 0 25 -16 14 -16 25 -25 25 -21 0 10 -51 100 -61 107 -18 14 -89
160 -89 183 l0 27 -1717 -2 c-945 0 -1733 -3 -1751 -5z m1503 -255 c-9 -6 -19
-7 -22 -4 -4 3 -1 6 6 6 7 0 9 4 6 10 -4 6 1 7 11 3 15 -6 15 -7 -1 -15z m559
1 c-3 -5 -10 -7 -15 -3 -5 3 -7 10 -3 15 3 5 10 7 15 3 5 -3 7 -10 3 -15z
m540 9 c-3 -4 2 -8 11 -8 9 0 14 4 11 9 -7 11 62 7 72 -4 4 -5 -1 -5 -10 -2
-10 3 -20 1 -24 -5 -5 -8 5 -9 34 -5 28 5 42 3 45 -6 2 -6 7 -9 11 -6 4 4 0
14 -9 22 -14 14 -13 16 4 14 11 0 17 -6 14 -14 -5 -12 45 -39 54 -29 3 2 -5 7
-16 11 -12 3 -21 11 -21 16 0 6 7 6 19 -1 28 -15 35 -12 20 7 -13 15 -12 15 7
3 18 -11 20 -17 11 -31 -8 -13 -23 -17 -58 -16 -26 1 -47 6 -46 11 1 4 -4 11
-11 13 -7 3 -10 -1 -6 -10 5 -15 -22 -32 -30 -19 -3 5 -28 7 -56 6 -29 -1 -46
2 -39 7 7 4 16 6 20 3 4 -2 10 0 14 5 3 6 -6 8 -22 5 -15 -3 -30 -9 -33 -14
-3 -5 -12 -5 -20 0 -13 8 -12 10 3 10 11 0 15 5 11 11 -4 8 1 9 17 4 20 -7 22
-6 12 7 -10 12 -10 15 2 15 8 0 12 -4 9 -9z m281 -2 c7 3 16 0 20 -5 3 -6 10
-9 15 -6 4 3 7 -3 6 -12 -2 -9 -8 -18 -15 -19 -6 -1 -7 0 -1 3 6 3 4 10 -4 19
-17 16 -30 19 -21 4 3 -5 1 -18 -5 -27 -9 -15 -10 -14 -4 6 3 13 2 21 -3 18
-5 -3 -9 4 -10 16 0 12 1 17 4 10 2 -7 10 -10 18 -7z m278 -2 c-4 -12 -2 -15
8 -12 8 3 13 10 12 15 -1 5 7 9 17 9 15 0 16 -4 9 -18 -5 -10 -17 -18 -25 -18
-8 0 -13 -4 -9 -9 10 -17 -34 -3 -63 19 l-27 22 32 -5 c18 -3 35 -1 39 4 9 15
14 10 7 -7z m102 7 c-3 -5 4 -11 15 -13 23 -3 29 -21 8 -26 -9 -2 -8 0 2 8 12
9 10 10 -10 8 -18 -2 -24 -8 -23 -23 1 -11 0 -15 -3 -8 -3 7 -11 10 -19 7 -7
-3 -16 -1 -20 5 -4 7 1 8 12 4 16 -6 17 -5 3 13 -14 17 -14 18 2 6 11 -9 18
-10 23 -2 3 5 0 10 -7 10 -9 0 -9 3 2 10 19 12 23 12 15 1z m108 -21 c8 0 8 3
-2 9 -9 6 -10 11 -2 15 6 4 11 3 11 -3 0 -6 6 -8 13 -5 8 3 14 -1 14 -9 0 -12
-8 -13 -69 -8 -10 0 -18 6 -18 12 0 5 5 7 10 4 6 -3 10 0 10 7 0 8 5 6 11 -4
5 -10 15 -18 22 -18z m-1668 10 c-3 -5 -12 -10 -18 -10 -7 0 -6 4 3 10 19 12
23 12 15 0z m307 -4 c7 4 10 4 6 -1 -4 -4 -2 -15 5 -23 9 -12 6 -12 -14 1 -14
10 -28 15 -31 12 -2 -3 -5 2 -5 10 0 11 4 12 13 4 7 -6 19 -7 26 -3z m196 -7
c-19 -12 -25 -11 -25 5 0 8 8 11 20 8 14 -4 16 -7 5 -13z m282 16 c0 -2 -10
-9 -22 -15 -22 -11 -22 -10 -4 4 21 17 26 19 26 11z m-561 -12 c-3 -19 2 -34
10 -29 4 3 8 -5 8 -17 1 -41 3 -48 13 -42 5 3 7 0 4 -9 -5 -12 -9 -13 -19 -3
-7 7 -12 17 -12 22 1 6 -6 9 -16 7 -25 -4 -32 24 -13 53 16 25 27 32 25 18z
m211 3 c0 -2 -7 -7 -16 -10 -8 -3 -12 -2 -9 4 6 10 25 14 25 6z m170 -7 c0 -4
-4 -11 -10 -14 -5 -3 -10 0 -10 7 0 10 -2 10 -9 -1 -5 -8 -11 -9 -15 -3 -3 6
0 12 6 14 20 7 38 5 38 -3z m-262 -24 c-3 -3 -9 2 -12 12 -6 14 -5 15 5 6 7
-7 10 -15 7 -18z m47 -4 c-6 -5 -25 10 -25 20 0 5 6 4 14 -3 8 -7 12 -15 11
-17z m-435 4 c0 -1 -15 -2 -32 -2 -26 -1 -29 1 -13 7 17 6 45 3 45 -5z m37 9
c-3 -3 -12 -4 -19 -1 -8 3 -5 6 6 6 11 1 17 -2 13 -5z m115 -2 c3 7 7 3 10
-10 4 -12 2 -22 -3 -22 -4 0 -6 -8 -2 -17 9 -27 -2 -12 -20 26 -12 24 -13 30
-3 22 11 -9 15 -9 18 1z m418 -8 c0 -2 -7 -4 -15 -4 -8 0 -15 4 -15 10 0 5 7
7 15 4 8 -4 15 -8 15 -10z m625 6 c3 -5 1 -10 -4 -10 -6 0 -11 5 -11 10 0 6 2
10 4 10 3 0 8 -4 11 -10z m495 0 c0 -5 -9 -10 -21 -10 -11 0 -17 5 -14 10 3 6
13 10 21 10 8 0 14 -4 14 -10z m44 -31 c-3 -20 0 -28 8 -23 7 4 8 3 4 -4 -13
-21 -26 -13 -24 16 2 26 6 42 12 42 2 0 2 -14 0 -31z m-898 2 c0 -11 -5 -17
-13 -14 -14 6 -17 16 -6 26 11 12 19 7 19 -12z m-1062 -42 c-8 -13 -24 -1 -24
18 0 13 3 13 15 3 8 -7 12 -16 9 -21z m1699 11 c3 -11 1 -18 -4 -14 -5 3 -9
12 -9 20 0 20 7 17 13 -6z m-1206 3 c-4 -3 -2 -12 4 -20 7 -8 8 -13 1 -13 -5
0 -15 6 -21 14 -9 11 -9 15 1 19 19 8 22 8 15 0z m874 -10 c13 -17 13 -17 -5
-3 -18 14 -19 13 -13 -4 6 -16 5 -17 -8 -6 -13 11 -13 15 -3 21 7 5 14 9 14 9
1 0 8 -8 15 -17z m-1153 -6 c7 -5 11 -14 9 -20 -6 -18 -30 -14 -49 8 -12 13
-17 15 -18 6 0 -8 -6 -11 -16 -7 -8 3 -12 2 -9 -4 3 -6 1 -10 -4 -10 -6 0 -11
8 -11 18 0 15 8 18 43 18 23 -1 48 -5 55 -9z m647 3 c3 -6 -1 -7 -9 -4 -18 7
-21 14 -7 14 6 0 13 -4 16 -10z m-1811 -31 c-3 -5 -10 -7 -15 -3 -5 3 -7 10
-3 15 3 5 10 7 15 3 5 -3 7 -10 3 -15z m280 2 c3 -4 -4 -7 -14 -6 -27 2 -33
10 -10 12 11 1 22 -2 24 -6z m-87 -26 c0 -8 -4 -12 -9 -9 -5 3 -6 10 -3 15 9
13 12 11 12 -6z m-404 -132 c-13 -2 -33 -2 -45 0 -13 2 -3 4 22 4 25 0 35 -2
23 -4z"/>
<path d="M2675 4530 c3 -5 11 -10 16 -10 6 0 7 5 4 10 -3 6 -11 10 -16 10 -6
0 -7 -4 -4 -10z"/>
<path d="M2720 4519 c0 -5 5 -7 10 -4 6 3 10 8 10 11 0 2 -4 4 -10 4 -5 0 -10
-5 -10 -11z"/>
<path d="M3160 4541 c0 -5 7 -11 15 -15 8 -3 15 -1 15 3 0 5 -7 11 -15 15 -8
3 -15 1 -15 -3z"/>
<path d="M1936 4514 c-4 -10 -2 -22 4 -28 7 -7 10 -5 10 5 0 12 2 12 10 -1 5
-8 10 -10 10 -5 -1 6 -7 18 -14 28 -13 16 -14 16 -20 1z"/>
<path d="M1641 4447 c2 -1 13 -9 24 -17 19 -14 19 -14 6 3 -7 9 -18 17 -24 17
-6 0 -8 -1 -6 -3z"/>
<path d="M4020 4790 c19 -11 42 -24 50 -29 8 -4 24 -22 35 -39 17 -27 47 -42
90 -48 6 0 17 -3 25 -7 8 -3 38 -13 65 -23 28 -10 55 -21 60 -24 17 -12 106
-31 116 -25 5 4 9 2 9 -3 0 -9 50 -35 56 -29 8 7 -81 64 -93 60 -13 -5 -17 7
-14 40 1 9 -4 17 -11 17 -8 0 -26 29 -42 65 l-28 65 -177 0 -176 0 35 -20z"/>
<path d="M5169 4780 c32 -31 40 -50 19 -50 -6 0 -2 -10 9 -22 51 -57 55 -160
9 -250 -22 -44 -36 -57 -76 -75 -27 -13 -54 -23 -60 -23 -5 0 -10 -5 -10 -11
0 -6 9 -9 20 -6 11 3 18 1 15 -4 -3 -4 8 -15 25 -24 29 -15 40 -9 20 11 -14
14 -5 36 19 51 16 10 18 9 15 -10 -2 -12 -2 -16 2 -9 3 6 9 10 13 8 4 -3 8 1
8 9 0 8 -4 15 -8 15 -5 0 -6 7 -2 16 4 11 8 12 13 4 5 -7 13 -9 20 -5 9 5 11
4 6 -3 -9 -15 9 -15 35 -2 13 8 19 7 19 0 0 -6 5 -8 10 -5 6 4 4 12 -5 21 -25
26 -17 32 26 21 31 -7 43 -7 49 2 5 9 9 6 13 -8 4 -18 13 -21 55 -21 28 0 63
5 79 11 19 7 29 7 31 0 2 -6 12 -11 23 -11 13 0 19 -7 19 -21 0 -15 4 -19 16
-15 9 3 31 6 50 6 25 0 34 4 35 18 0 14 2 13 11 -5 10 -22 68 -50 68 -33 0 10
98 33 109 25 5 -2 22 0 40 5 23 6 35 5 46 -6 8 -9 19 -13 24 -9 6 3 15 -3 21
-12 11 -17 11 -17 6 0 -6 18 9 24 19 7 5 -8 11 -8 20 0 19 15 26 50 10 50 -36
0 -16 93 22 103 10 3 48 5 84 6 57 1 69 -2 92 -23 16 -15 24 -31 21 -40 -3 -9
-1 -16 5 -16 6 0 11 -7 11 -15 0 -9 6 -12 15 -9 11 5 12 11 4 25 -6 13 -6 19
1 19 5 0 10 6 10 14 0 8 6 16 14 19 8 3 16 18 18 33 3 27 39 52 103 71 17 5
30 16 29 24 -1 8 7 15 17 15 10 0 15 -4 13 -8 -3 -4 2 -5 11 -2 22 9 30 51 14
71 -11 13 -11 17 -1 20 6 3 12 11 12 19 0 8 11 26 25 39 l24 25 -731 0 -731 0
32 -30z m91 -325 c-10 -12 -10 -18 -1 -29 10 -12 9 -14 -6 -11 -10 2 -22 4
-27 4 -5 1 1 12 14 26 25 27 40 35 20 10z"/>
<path d="M7299 4793 c-8 -10 -20 -28 -26 -40 -13 -22 -12 -22 56 -18 59 4 72
2 96 -17 26 -20 28 -21 56 -4 22 13 40 16 69 11 l40 -7 0 46 0 46 -138 0
c-120 0 -141 -2 -153 -17z"/>
<path d="M4965 4769 c-91 -45 -136 -119 -138 -228 -2 -84 -1 -86 104 -131 70
-30 79 -31 114 -20 49 16 104 66 126 115 20 44 26 155 8 155 -5 0 -7 5 -4 11
4 6 -7 28 -24 49 -17 21 -31 43 -31 49 0 15 -23 19 -48 8 -16 -8 -26 -7 -34 1
-16 16 -26 15 -73 -9z m93 -161 c22 -22 14 -67 -13 -80 -37 -17 -75 3 -75 40
0 35 16 52 50 52 14 0 31 -5 38 -12z"/>
<path d="M3608 4480 c2 -17 9 -33 15 -37 6 -4 8 2 4 18 -4 13 -7 30 -7 37 0 6
-4 12 -8 12 -5 0 -7 -14 -4 -30z"/>
<path d="M2983 4455 c0 -8 4 -12 9 -9 5 3 6 10 3 15 -9 13 -12 11 -12 -6z"/>
<path d="M3650 4463 c0 -5 12 -13 26 -20 26 -12 26 -12 9 7 -18 20 -35 26 -35
13z"/>
<path d="M1709 4441 c6 -10 7 -22 3 -26 -4 -5 -2 -5 5 -2 6 4 14 1 16 -5 4
-10 6 -10 6 0 1 6 10 12 21 12 22 0 27 15 8 26 -7 4 -8 3 -4 -4 4 -7 1 -12 -8
-12 -26 0 -31 2 -29 10 1 4 -4 11 -13 14 -11 4 -12 2 -5 -13z"/>
<path d="M2495 4446 c-18 -22 -14 -32 13 -32 20 0 28 5 28 17 0 21 -28 31 -41
15z m25 -10 c0 -3 -4 -8 -10 -11 -5 -3 -10 -1 -10 4 0 6 5 11 10 11 6 0 10 -2
10 -4z"/>
<path d="M1515 4430 c-10 -12 -24 -19 -30 -16 -7 2 -18 0 -26 -5 -11 -7 -11
-9 4 -9 9 0 17 -4 17 -8 0 -4 16 -6 36 -4 24 3 34 8 30 18 -3 7 -1 16 5 19 10
7 3 25 -10 25 -4 0 -16 -9 -26 -20z m26 -3 c-6 -8 -8 -17 -4 -20 3 -4 -1 -7
-10 -7 -15 0 -15 3 -5 20 7 11 17 20 22 20 4 0 3 -6 -3 -13z"/>
<path d="M2119 4441 c7 -5 11 -13 8 -18 -3 -5 0 -10 7 -10 8 0 12 7 8 15 -4
11 -1 13 9 7 8 -4 11 -4 6 0 -4 5 -18 10 -30 12 -16 2 -18 1 -8 -6z"/>
<path d="M2172 4434 c2 -16 7 -20 22 -16 15 4 17 7 6 10 -8 3 -18 10 -22 16
-4 6 -6 1 -6 -10z"/>
<path d="M2216 4436 c3 -9 13 -16 22 -16 8 0 13 1 11 3 -2 1 -12 9 -22 16 -15
12 -17 12 -11 -3z"/>
<path d="M2626 4438 c3 -5 10 -6 15 -3 13 9 11 12 -6 12 -8 0 -12 -4 -9 -9z"/>
<path d="M3230 4425 c0 -14 4 -25 9 -25 4 0 6 11 3 25 -2 14 -6 25 -8 25 -2 0
-4 -11 -4 -25z"/>
<path d="M2336 4424 c-5 -14 -4 -15 9 -4 17 14 19 20 6 20 -5 0 -12 -7 -15
-16z"/>
<path d="M2888 4433 c7 -3 16 -2 19 1 4 3 -2 6 -13 5 -11 0 -14 -3 -6 -6z"/>
<path d="M6381 4418 c-14 -23 -14 -23 8 -4 22 20 25 26 13 26 -4 0 -13 -10
-21 -22z"/>
<path d="M2081 4409 c5 -11 15 -17 20 -13 14 9 6 27 -14 30 -14 2 -15 -1 -6
-17z"/>
<path d="M2637 4418 c-7 -5 0 -6 17 -4 16 3 31 7 33 10 8 8 -37 2 -50 -6z"/>
<path d="M3195 4420 c4 -6 11 -8 16 -5 14 9 11 15 -7 15 -8 0 -12 -5 -9 -10z"/>
<path d="M3154 4412 c4 -3 14 -7 22 -8 9 -1 13 0 10 4 -4 3 -14 7 -22 8 -9 1
-13 0 -10 -4z"/>
<path d="M3706 4407 c3 -10 9 -15 12 -12 3 3 0 11 -7 18 -10 9 -11 8 -5 -6z"/>
<path d="M3420 4401 c0 -6 4 -13 10 -16 6 -3 7 1 4 9 -7 18 -14 21 -14 7z"/>
<path d="M3474 4399 c-8 -14 4 -25 36 -33 l25 -6 -25 12 c-35 17 -36 18 -20
28 9 6 10 10 3 10 -6 0 -15 -5 -19 -11z"/>
<path d="M5440 4390 c0 -5 14 -10 30 -10 17 0 30 5 30 10 0 6 -13 10 -30 10
-16 0 -30 -4 -30 -10z"/>
<path d="M1280 4350 c0 -11 2 -20 5 -20 3 0 15 9 27 20 l22 20 -27 0 c-20 0
-27 -5 -27 -20z"/>
<path d="M5864 4359 c-8 -14 18 -31 30 -19 9 9 0 30 -14 30 -5 0 -12 -5 -16
-11z"/>
<path d="M5948 4353 c7 -3 16 -2 19 1 4 3 -2 6 -13 5 -11 0 -14 -3 -6 -6z"/>
<path d="M1020 4340 c0 -5 5 -10 10 -10 6 0 10 5 10 10 0 6 -4 10 -10 10 -5 0
-10 -4 -10 -10z"/>
<path d="M3766 4310 c5 -38 4 -40 -20 -40 -14 0 -26 5 -26 11 0 5 -5 7 -11 4
-6 -4 24 -30 68 -60 77 -52 155 -123 120 -110 -10 4 -17 2 -17 -5 0 -6 -5 -8
-11 -4 -8 4 -7 9 2 14 9 6 2 11 -22 18 -19 5 -36 8 -38 6 -2 -2 8 -17 23 -35
25 -29 26 -33 11 -55 -8 -13 -15 -37 -15 -53 0 -33 -16 -49 -33 -32 -19 19
-29 12 -13 -10 8 -12 12 -28 9 -36 -3 -8 2 -20 12 -27 29 -21 12 -62 -35 -86
-52 -27 -83 -25 -140 6 -57 31 -77 75 -66 149 8 50 50 101 93 111 13 4 23 10
23 15 0 4 9 6 20 4 11 -2 20 0 20 5 0 4 19 12 43 16 23 4 34 9 25 12 -10 2
-18 8 -18 14 0 15 -58 0 -113 -30 -75 -40 -137 -139 -137 -219 0 -13 -9 -32
-20 -43 -21 -21 -46 -28 -35 -10 3 6 -4 10 -16 10 -21 0 -21 0 4 -20 14 -11
40 -21 59 -21 18 -1 25 -3 16 -6 -10 -2 -18 -9 -18 -14 0 -6 4 -8 10 -4 5 3
22 -7 37 -23 47 -47 94 -69 164 -77 74 -7 140 6 168 34 9 9 23 15 29 13 7 -2
12 6 12 18 0 13 9 31 20 40 25 22 40 70 40 127 0 47 24 69 62 57 14 -4 18 -2
14 5 -4 6 -4 11 1 10 4 0 60 -59 123 -131 121 -137 249 -268 262 -268 4 0 8
-10 8 -22 0 -17 3 -19 9 -10 6 11 10 10 16 -5 5 -10 7 -21 7 -25 -1 -5 3 -8 8
-8 6 0 15 -11 22 -25 6 -13 15 -22 19 -19 5 3 17 0 26 -6 17 -11 17 -11 1 -6
-21 6 -22 2 -6 -23 6 -10 19 -16 28 -14 13 4 17 -3 18 -26 0 -24 -6 -34 -26
-46 -15 -8 -23 -14 -18 -15 5 0 -18 -17 -51 -37 -32 -21 -68 -44 -79 -50 -17
-11 -146 -79 -327 -171 -34 -17 -68 -28 -80 -25 -16 4 -18 2 -8 -5 11 -8 9
-11 -10 -17 -13 -4 -121 -38 -239 -75 -275 -88 -479 -150 -506 -154 -12 -2
-30 -9 -41 -15 -11 -5 -23 -8 -26 -5 -3 3 -12 2 -19 -2 -7 -5 -22 -10 -33 -11
-10 -2 -30 -11 -43 -19 -13 -9 -26 -13 -29 -10 -4 3 -12 1 -19 -5 -8 -6 -21
-9 -29 -5 -8 3 -15 0 -15 -6 0 -6 -3 -8 -7 -5 -3 4 -11 3 -18 -3 -6 -5 -121
-44 -256 -86 -134 -42 -248 -80 -254 -84 -5 -4 -107 -38 -225 -75 -118 -37
-219 -71 -225 -75 -5 -4 -41 -17 -80 -29 -38 -13 -110 -42 -160 -67 -49 -24
-102 -45 -117 -46 -15 -1 -25 -5 -22 -9 2 -4 -15 -12 -38 -18 -126 -30 -148
-38 -166 -54 -20 -18 -48 -15 -37 4 4 5 1 9 -5 9 -6 0 -41 29 -76 65 -65 65
-74 71 -88 58 -14 -14 -31 -8 -57 20 -18 20 -24 36 -21 55 4 31 -42 97 -59 86
-13 -8 -60 4 -56 14 1 4 -9 19 -22 32 -18 19 -22 21 -17 7 3 -10 6 -21 6 -23
0 -2 7 -4 17 -4 9 0 13 -3 10 -6 -6 -6 16 -36 68 -96 8 -10 15 -22 15 -28 0
-5 11 -17 25 -26 14 -9 24 -18 22 -20 -2 -3 12 -23 32 -46 48 -56 151 -158
151 -150 0 4 6 0 13 -8 7 -9 35 -26 62 -39 42 -20 64 -24 144 -23 52 1 97 4
100 7 3 3 -1 15 -8 26 -7 12 -11 22 -9 24 4 4 508 113 978 211 146 30 296 62
335 70 125 28 146 32 440 94 478 100 1124 232 1280 262 33 6 94 22 134 35 41
13 91 26 110 28 20 2 52 6 71 9 28 6 48 0 95 -24 33 -17 70 -42 83 -56 24 -25
88 -34 108 -14 5 5 45 9 89 9 102 0 130 -3 147 -16 13 -10 57 -23 90 -26 9 -1
15 -3 12 -6 -2 -3 21 -13 53 -22 31 -10 58 -17 60 -15 7 7 -59 46 -69 40 -6
-4 -8 -3 -4 4 3 6 2 13 -4 17 -5 3 -10 0 -11 -7 0 -7 -5 -2 -10 11 -6 15 -14
21 -25 17 -8 -3 -13 -2 -9 3 5 9 -50 61 -65 61 -11 0 -93 80 -112 110 -9 15
-34 34 -57 45 -23 10 -41 22 -41 28 0 5 -8 16 -17 23 -17 12 -16 14 6 38 18
19 27 23 32 14 6 -9 13 -6 26 9 10 11 32 24 48 27 22 5 26 4 15 -3 -13 -9 -12
-12 5 -26 11 -9 14 -13 6 -10 -12 7 4 -25 33 -63 13 -18 15 -51 3 -59 -13 -8
-41 23 -32 36 3 6 11 8 17 5 7 -5 8 -2 3 5 -5 9 -11 9 -17 3 -6 -6 -18 -8 -27
-5 -13 4 -13 3 -2 -5 7 -5 11 -14 7 -20 -10 -17 4 -40 30 -46 14 -4 22 -11 19
-15 -3 -5 4 -7 14 -4 16 4 19 1 15 -15 -5 -17 -1 -19 30 -17 34 3 63 -14 38
-23 -7 -2 -12 -8 -12 -13 0 -5 10 -3 23 5 12 7 36 17 52 21 25 7 27 9 10 13
-49 11 -70 23 -56 32 8 4 23 7 33 5 10 -2 16 0 13 6 -4 5 -10 7 -15 4 -5 -3
-13 3 -19 12 -10 17 -10 17 -11 1 0 -10 -6 -18 -14 -18 -11 0 -13 10 -9 47 2
25 8 56 13 67 9 25 -5 129 -23 166 -7 14 -20 24 -29 22 -9 -1 -19 2 -23 8 -3
5 2 10 11 10 10 0 14 3 10 7 -13 13 -76 9 -76 -5 0 -7 -4 -11 -9 -8 -5 4 -7
-3 -4 -13 3 -11 0 -28 -6 -38 -9 -16 -10 -16 -11 7 -1 22 -2 23 -9 6 -6 -15
-11 -5 -19 40 -12 61 -31 98 -51 100 -22 3 -23 4 -11 19 9 11 9 15 1 15 -7 0
-10 4 -7 9 3 4 -10 1 -29 -7 -35 -16 -52 -52 -46 -96 2 -12 -2 -16 -9 -11 -8
5 -11 -6 -9 -39 2 -25 0 -48 -4 -52 -7 -7 -11 23 -8 61 2 17 0 17 -8 5 -6 -9
-11 -10 -11 -3 0 6 -3 19 -7 29 -3 10 -2 15 3 12 5 -4 9 15 9 42 0 27 -4 46
-9 42 -5 -3 -7 2 -3 11 8 22 -15 78 -30 73 -16 -6 -27 10 -13 19 16 10 2 25
-23 25 -40 0 -51 -16 -58 -82 -3 -35 -2 -67 2 -72 5 -6 9 -15 9 -20 0 -6 -7
-3 -15 8 -7 10 -19 15 -25 11 -9 -6 -9 -2 -1 14 9 17 9 21 -1 19 -9 -2 -13 13
-13 54 0 31 -4 54 -9 51 -4 -3 -5 4 -2 15 8 26 -9 62 -29 62 -8 0 -15 5 -15
11 0 6 7 8 17 5 15 -6 14 -4 -2 14 -27 29 -57 22 -76 -20 -9 -19 -15 -39 -14
-45 2 -5 6 -29 9 -52 5 -36 3 -43 -10 -43 -13 0 -14 3 -5 14 9 11 8 17 -6 28
-19 14 -22 21 -27 77 -8 81 -18 111 -37 111 -21 0 -26 16 -6 23 9 3 9 8 -2 21
-9 11 -21 14 -35 10 -23 -8 -47 -35 -40 -46 3 -5 0 -8 -6 -8 -7 0 -9 -8 -5
-20 3 -11 2 -27 -3 -37 -8 -13 -12 0 -18 53 -4 38 -7 75 -5 83 1 7 -2 10 -8 6
-6 -3 -11 0 -11 8 0 8 -9 26 -20 39 -22 29 -62 28 -84 -3 -12 -18 -13 -18 -25
7 -6 14 -9 30 -6 35 4 5 2 9 -4 9 -6 0 -7 7 -4 17 4 11 3 14 -5 9 -7 -4 -12
-1 -12 7 0 21 -35 49 -57 45 -10 -2 -24 -9 -32 -16 -12 -12 -16 -10 -27 10 -7
12 -13 31 -14 41 0 9 -4 17 -8 17 -5 0 -15 12 -22 26 -14 26 -26 27 -75 9 -14
-5 -16 -4 -7 3 11 7 10 10 -5 14 -11 3 -27 22 -37 42 -20 43 -40 54 -62 35
-14 -11 -15 -26 -11 -84 l6 -70 -34 40 c-36 42 -42 55 -25 55 26 0 3 41 -58
105 -37 39 -100 106 -141 149 -69 74 -75 78 -107 73 -19 -3 -34 -2 -34 4 0 5
-4 9 -10 9 -5 0 -7 -17 -4 -40z m114 -424 c0 -11 -19 -15 -25 -6 -3 5 1 10 9
10 9 0 16 -2 16 -4z m394 -52 c9 -8 16 -20 16 -25 0 -5 -9 0 -20 11 -19 19
-25 30 -16 30 3 0 12 -7 20 -16z m-354 -20 c0 -18 -26 -47 -66 -75 -42 -29
-51 -31 -110 -27 -35 2 -69 9 -75 15 -9 9 -1 10 29 6 38 -5 137 19 144 35 2 4
16 17 32 30 28 21 46 28 46 16z m760 -78 c0 -3 -4 -8 -10 -11 -5 -3 -10 -1
-10 4 0 6 5 11 10 11 6 0 10 -2 10 -4z m74 -250 c-3 -9 -11 -16 -16 -16 -6 0
-6 6 1 14 8 10 9 16 1 21 -5 3 -10 14 -10 23 0 13 3 12 15 -5 8 -12 12 -28 9
-37z m-129 -36 c3 -5 1 -10 -4 -10 -6 0 -11 5 -11 10 0 6 2 10 4 10 3 0 8 -4
11 -10z m265 -20 c0 -5 -5 -10 -11 -10 -5 0 -7 5 -4 10 3 6 8 10 11 10 2 0 4
-4 4 -10z m20 -60 c0 -5 -5 -10 -11 -10 -5 0 -7 5 -4 10 3 6 8 10 11 10 2 0 4
-4 4 -10z m40 -156 c0 -2 -9 0 -20 6 -11 6 -20 13 -20 16 0 2 9 0 20 -6 11 -6
20 -13 20 -16z m485 -84 c3 -5 1 -10 -4 -10 -6 0 -11 5 -11 10 0 6 2 10 4 10
3 0 8 -4 11 -10z m-134 -27 c13 -16 12 -17 -3 -4 -10 7 -18 15 -18 17 0 8 8 3
21 -13z m23 -38 c-4 -8 -7 -15 -9 -15 -2 0 -5 7 -9 15 -3 9 0 15 9 15 9 0 12
-6 9 -15z m221 -145 c3 -5 -1 -10 -9 -10 -9 0 -16 5 -16 10 0 6 4 10 9 10 6 0
13 -4 16 -10z m-3301 -492 c-4 -5 -8 -7 -11 -4 -3 2 -16 1 -29 -4 -13 -5 -24
-7 -24 -4 0 6 39 21 56 21 7 0 11 -4 8 -9z"/>
<path d="M3733 4315 c0 -8 4 -12 9 -9 5 3 6 10 3 15 -9 13 -12 11 -12 -6z"/>
<path d="M5200 4326 c0 -2 8 -10 18 -17 15 -13 16 -12 3 4 -13 16 -21 21 -21
13z"/>
<path d="M620 4305 c0 -8 5 -15 10 -15 6 0 10 7 10 15 0 8 -4 15 -10 15 -5 0
-10 -7 -10 -15z"/>
<path d="M6199 4263 c-13 -16 -12 -17 4 -4 9 7 17 15 17 17 0 8 -8 3 -21 -13z"/>
<path d="M5238 4253 c7 -3 16 -2 19 1 4 3 -2 6 -13 5 -11 0 -14 -3 -6 -6z"/>
<path d="M6126 4203 c-6 -14 -5 -15 5 -6 7 7 10 15 7 18 -3 3 -9 -2 -12 -12z"/>
<path d="M6064 4155 c-10 -8 -14 -15 -8 -15 6 0 17 7 24 15 16 19 9 19 -16 0z"/>
<path d="M5475 4130 c3 -5 8 -10 11 -10 2 0 4 5 4 10 0 6 -5 10 -11 10 -5 0
-7 -4 -4 -10z"/>
<path d="M5850 3980 c-9 -6 -10 -10 -3 -10 6 0 15 5 18 10 8 12 4 12 -15 0z"/>
<path d="M5760 3976 c0 -2 7 -7 16 -10 8 -3 12 -2 9 4 -6 10 -25 14 -25 6z"/>
<path d="M5370 3930 c0 -5 7 -10 16 -10 8 0 12 5 9 10 -3 6 -10 10 -16 10 -5
0 -9 -4 -9 -10z"/>
<path d="M4411 3914 c0 -11 3 -14 6 -6 3 7 2 16 -1 19 -3 4 -6 -2 -5 -13z"/>
<path d="M5946 3877 c3 -10 9 -15 12 -12 3 3 0 11 -7 18 -10 9 -11 8 -5 -6z"/>
<path d="M3448 3873 c7 -3 16 -2 19 1 4 3 -2 6 -13 5 -11 0 -14 -3 -6 -6z"/>
<path d="M6128 3773 c7 -3 16 -2 19 1 4 3 -2 6 -13 5 -11 0 -14 -3 -6 -6z"/>
<path d="M2113 3725 c0 -22 2 -30 4 -17 2 12 2 30 0 40 -3 9 -5 -1 -4 -23z"/>
<path d="M1710 3725 c0 -29 24 -43 44 -26 11 9 15 9 19 -1 3 -11 8 -11 26 0
12 7 21 8 21 2 0 -5 4 -10 8 -10 9 0 8 44 -1 48 -4 1 -10 1 -14 1 -5 -1 -16
-1 -25 0 -10 1 -18 -4 -18 -11 0 -8 -4 -6 -11 5 -16 27 -49 22 -49 -8z m30 -6
c0 -11 -4 -17 -10 -14 -5 3 -10 13 -10 21 0 8 5 14 10 14 6 0 10 -9 10 -21z"/>
<path d="M1873 3720 c11 -29 12 -29 23 -9 l11 21 6 -22 c7 -26 32 -22 32 6 0
12 -6 18 -17 18 -10 -1 -18 3 -18 8 0 6 -6 5 -15 -2 -10 -9 -15 -9 -15 -1 0 6
-4 11 -9 11 -5 0 -4 -13 2 -30z m67 -5 c0 -8 -4 -15 -10 -15 -5 0 -10 7 -10
15 0 8 5 15 10 15 6 0 10 -7 10 -15z"/>
<path d="M2058 3743 c6 -2 12 -16 12 -29 0 -34 17 -30 22 6 4 27 2 30 -21 29
-14 0 -20 -3 -13 -6z"/>
<path d="M2170 3741 c0 -5 -8 -8 -17 -7 -11 0 -19 -7 -21 -20 -3 -19 2 -21 57
-21 35 0 61 5 61 11 0 6 5 5 12 -2 18 -18 24 -15 22 15 -1 25 -24 48 -24 24 0
-6 -7 -8 -16 -4 -10 4 -22 -1 -30 -11 -11 -16 -13 -16 -19 3 -6 21 -25 29 -25
12z m0 -26 c0 -2 -7 -5 -15 -9 -9 -3 -15 0 -15 9 0 9 6 12 15 9 8 -4 15 -7 15
-9z"/>
<path d="M1961 3717 c-1 -24 2 -27 28 -25 22 2 31 8 34 25 2 13 0 23 -4 23 -5
0 -9 -6 -9 -12 0 -9 -4 -8 -10 2 -8 12 -11 11 -17 -10 l-7 -25 -7 25 -7 25 -1
-28z"/>
<path d="M1470 3435 l0 -135 30 0 c30 0 30 0 30 59 0 75 6 91 36 91 22 0 23
-4 26 -72 3 -71 4 -73 31 -76 l27 -3 0 85 c0 76 -2 86 -22 100 -27 19 -69 21
-86 4 -9 -9 -12 -2 -12 35 0 46 -1 47 -30 47 l-30 0 0 -135z"/>
<path d="M2560 3435 l0 -135 30 0 30 0 0 135 0 135 -30 0 -30 0 0 -135z"/>
<path d="M2770 3523 c0 -37 -3 -44 -12 -35 -18 18 -66 14 -88 -8 -37 -37 -39
-122 -4 -161 19 -21 78 -26 90 -8 4 8 9 8 17 0 6 -6 19 -11 29 -11 16 0 18 12
18 135 l0 135 -25 0 c-23 0 -25 -4 -25 -47z m-6 -89 c20 -53 -8 -104 -46 -83
-34 19 -20 99 17 99 13 0 26 -7 29 -16z"/>
<path d="M1270 3535 c0 -21 5 -25 30 -25 l30 0 0 -105 0 -105 30 0 30 0 0 106
c0 94 2 105 18 103 42 -4 52 1 52 26 0 25 0 25 -95 25 -95 0 -95 0 -95 -25z"/>
<path d="M1699 3471 c-41 -42 -41 -101 1 -142 26 -27 35 -30 82 -27 46 3 53 6
56 26 3 21 1 22 -37 16 -27 -4 -46 -2 -56 6 -27 22 -16 30 45 30 l60 0 0 35
c0 80 -92 114 -151 56z m91 -31 c10 -18 8 -20 -25 -20 -37 0 -43 8 -23 28 18
18 36 15 48 -8z"/>
<path d="M1922 3488 c3 -7 15 -52 28 -100 23 -87 23 -88 55 -88 31 0 32 1 45
66 14 73 20 70 40 -14 12 -51 14 -53 42 -50 29 3 32 7 58 95 15 51 25 95 22
98 -3 3 -16 5 -28 5 -19 0 -25 -8 -34 -42 -21 -84 -22 -84 -44 15 -6 25 -11
28 -38 25 -30 -3 -33 -7 -47 -63 l-14 -60 -14 63 c-14 59 -16 62 -45 62 -20 0
-29 -4 -26 -12z"/>
<path d="M2253 3485 c-27 -19 -46 -77 -38 -115 15 -67 111 -95 160 -45 20 19
25 34 25 74 0 43 -4 53 -31 75 -35 30 -83 34 -116 11z m82 -85 c0 -40 -3 -45
-24 -48 -27 -4 -41 12 -41 49 0 31 18 51 45 47 17 -3 20 -11 20 -48z"/>
<path d="M2427 3493 c-4 -3 -7 -48 -7 -100 l0 -93 30 0 c30 0 30 0 30 58 0 67
6 78 43 87 20 5 27 13 27 31 0 28 -24 32 -58 8 -20 -14 -22 -14 -22 0 0 16
-31 22 -43 9z"/>
<path d="M6690 3442 c0 -13 69 -82 83 -82 12 0 9 4 -38 50 -25 24 -45 38 -45
32z"/>
<path d="M6819 3323 c12 -24 31 -39 31 -25 0 5 -10 17 -21 28 -22 19 -22 19
-10 -3z"/>
<path d="M6739 3268 c-7 -13 -31 -49 -55 -80 l-44 -58 40 -42 c22 -24 40 -46
40 -49 0 -12 182 -234 194 -236 11 -3 58 57 83 105 17 32 34 132 25 148 -11
20 -251 234 -262 234 -5 0 -15 -10 -21 -22z"/>
<path d="M6920 3215 c19 -19 36 -35 39 -35 3 0 -10 16 -29 35 -19 19 -36 35
-39 35 -3 0 10 -16 29 -35z"/>
<path d="M1287 3207 c-8 -22 8 -39 34 -35 35 5 33 42 -2 46 -16 2 -29 -3 -32
-11z"/>
<path d="M6960 3166 c0 -2 8 -10 18 -17 15 -13 16 -12 3 4 -13 16 -21 21 -21
13z"/>
<path d="M1290 3050 l0 -100 25 0 25 0 0 100 0 100 -25 0 -25 0 0 -100z"/>
<path d="M1380 3130 c-11 -11 -20 -27 -20 -35 0 -20 44 -65 63 -65 8 0 20 -7
27 -15 17 -21 -10 -30 -49 -17 -24 8 -31 7 -35 -5 -10 -25 14 -43 58 -43 53 0
86 22 86 59 0 30 -18 50 -63 69 -37 16 -25 34 17 26 26 -4 35 -2 40 12 9 23
-10 34 -61 34 -30 0 -49 -6 -63 -20z"/>
<path d="M1580 3145 c0 -3 16 -45 35 -93 40 -98 40 -132 0 -132 -20 0 -25 -5
-25 -25 0 -21 5 -25 29 -25 46 0 68 28 116 153 25 66 45 121 45 123 0 2 -13 4
-29 4 -27 0 -31 -5 -47 -55 -10 -30 -21 -55 -24 -55 -3 0 -14 25 -24 55 -16
50 -20 55 -47 55 -16 0 -29 -2 -29 -5z"/>
<path d="M1813 3135 c-33 -23 -47 -86 -29 -129 17 -40 42 -56 89 -56 52 0 87
40 87 99 0 25 -6 53 -13 62 -30 39 -96 51 -134 24z m82 -85 c0 -42 -2 -45 -27
-48 -22 -3 -29 2 -34 22 -3 14 -3 38 0 52 5 20 12 25 34 22 25 -3 27 -6 27
-48z"/>
<path d="M1987 3143 c-12 -11 -8 -130 5 -158 14 -31 51 -42 92 -26 20 7 32 8
34 1 2 -5 12 -10 23 -10 17 0 19 8 19 100 l0 100 -25 0 c-24 0 -25 -3 -25 -58
0 -64 -16 -96 -46 -90 -16 3 -19 13 -22 76 -3 68 -4 72 -26 72 -12 0 -26 -3
-29 -7z"/>
<path d="M2199 3138 c-2 -22 -2 -61 -1 -125 2 -60 3 -63 27 -63 24 0 25 3 25
59 0 41 5 65 16 75 23 23 53 20 63 -7 5 -13 25 -31 45 -41 19 -9 38 -21 41
-26 10 -16 -22 -23 -56 -11 -29 10 -30 10 -27 -17 3 -24 8 -27 46 -30 107 -8
129 89 29 127 -38 15 -24 33 17 25 26 -4 35 -2 40 12 9 23 -10 34 -61 34 -30
0 -49 -6 -63 -20 l-20 -20 0 20 c0 24 -26 26 -58 4 -20 -14 -22 -14 -22 0 0
19 -39 22 -41 4z"/>
<path d="M5990 3120 c-11 -7 -37 -96 -61 -210 -11 -54 -9 -144 4 -162 6 -9 7
-8 3 5 -3 9 -1 17 4 17 13 0 13 -27 1 -35 -5 -3 -12 -1 -16 4 -8 14 -35 2 -35
-15 0 -7 6 -17 13 -21 16 -9 29 -51 18 -57 -4 -3 -8 5 -8 16 -1 12 -6 24 -11
27 -5 3 -17 24 -28 46 -28 61 -35 66 -78 53 -34 -11 -57 -35 -62 -65 -3 -17
13 -26 21 -13 11 18 25 11 25 -12 0 -19 -2 -20 -10 -8 -5 8 -10 10 -10 5 0 -6
10 -19 22 -29 18 -15 20 -16 15 -2 -4 9 -2 16 3 16 6 0 10 -6 10 -14 0 -9 8
-13 23 -10 12 2 16 1 9 -2 -10 -5 -10 -9 -1 -20 6 -8 17 -14 23 -14 6 0 6 4
-2 9 -10 6 -7 10 12 13 21 4 24 3 15 -8 -9 -11 -7 -15 5 -20 9 -3 13 -11 9
-17 -3 -6 -1 -7 6 -3 9 6 9 11 0 22 -10 12 -9 13 4 9 8 -4 17 -15 20 -26 3
-11 14 -19 25 -19 24 0 37 -16 22 -25 -22 -14 10 -32 51 -30 26 2 36 -1 28 -6
-11 -7 -9 -9 6 -9 18 -1 19 -1 3 -11 -33 -19 -31 -21 137 -122 11 -7 31 -19
45 -28 67 -44 319 -162 432 -203 125 -45 238 -68 238 -49 0 8 -196 93 -215 93
-3 0 -25 9 -48 19 -24 11 -55 23 -70 26 -15 4 -27 11 -27 15 0 4 -16 11 -35
14 -19 4 -35 11 -35 16 0 6 -5 10 -11 10 -5 0 -7 -6 -3 -12 5 -9 2 -8 -9 1
-10 8 -26 14 -37 15 -23 1 -29 19 -8 24 10 3 10 2 -1 -6 -10 -7 -6 -9 15 -9
26 0 27 0 9 13 -11 8 -26 12 -35 8 -41 -16 -47 -13 -44 23 2 30 -1 36 -29 48
-17 7 -38 11 -46 8 -13 -4 -13 -3 -3 5 10 7 2 19 -35 52 -26 23 -65 50 -86 60
-20 9 -54 36 -76 58 -21 23 -43 42 -49 42 -14 0 -34 35 -25 44 3 3 -1 6 -10 6
-8 0 -19 9 -22 20 -3 11 -11 20 -16 20 -5 0 -9 9 -9 21 0 16 4 20 18 14 39
-15 223 -64 302 -80 67 -14 111 -16 211 -11 142 7 358 39 406 61 37 17 36 40
-6 82 -74 77 -251 304 -251 323 0 8 -7 9 -17 5 -41 -17 -120 -34 -206 -45
-133 -18 -238 -7 -383 38 -17 5 -37 6 -44 2z m-26 -455 c-4 -8 -8 -15 -10 -15
-2 0 -4 7 -4 15 0 8 4 15 10 15 5 0 7 -7 4 -15z m46 -113 c0 -13 -12 -22 -22
-16 -10 6 -1 24 13 24 5 0 9 -4 9 -8z m103 -74 c-2 -5 2 -8 9 -8 10 0 10 -2 0
-9 -13 -8 -62 7 -62 19 0 3 13 5 29 5 16 0 27 -3 24 -7z"/>
<path d="M5391 3067 c-15 -19 -2 -29 15 -12 8 7 14 16 14 19 0 11 -17 6 -29
-7z"/>
<path d="M2494 2996 c-10 -26 4 -48 28 -44 17 2 23 10 23 28 0 18 -6 26 -23
28 -13 2 -25 -3 -28 -12z"/>
<path d="M7040 2979 c0 -21 -46 -115 -82 -167 -20 -29 -27 -47 -20 -54 11 -11
36 21 70 88 25 49 47 132 38 141 -3 4 -6 0 -6 -8z"/>
<path d="M1631 2808 c1 -18 3 -25 6 -15 5 20 23 23 23 4 0 -7 12 -14 28 -15
21 -1 23 0 12 8 -10 6 -11 10 -2 10 6 0 12 5 12 11 0 7 -10 9 -24 5 -16 -4
-30 0 -40 10 -15 14 -16 12 -15 -18z"/>
<path d="M1781 2810 c0 -29 2 -31 9 -15 7 17 9 17 9 3 1 -29 31 -22 31 7 0 18
-4 23 -16 18 -9 -3 -20 0 -25 8 -6 10 -9 3 -8 -21z"/>
<path d="M2652 2810 c0 -19 2 -27 5 -17 2 9 2 25 0 35 -3 9 -5 1 -5 -18z"/>
<path d="M1220 2805 c0 -17 5 -25 18 -25 14 0 15 2 2 10 -13 9 -13 10 0 10 12
0 13 2 1 9 -11 7 -11 9 0 14 10 4 9 6 -3 6 -13 1 -18 -7 -18 -24z"/>
<path d="M1607 2823 c-3 -5 -1 -17 4 -28 7 -17 8 -17 8 8 1 27 -4 34 -12 20z"/>
<path d="M1932 2822 c-19 -3 -21 -6 -11 -18 10 -12 9 -13 -5 -8 -9 3 -16 10
-16 15 0 5 -13 9 -30 9 -25 0 -30 -4 -29 -22 0 -22 1 -22 9 -3 8 18 9 18 9 2
1 -10 6 -15 11 -12 6 4 8 11 5 16 -4 5 -1 9 4 9 6 0 11 -6 11 -13 0 -20 48
-20 53 1 4 14 5 15 6 1 1 -11 10 -16 27 -16 18 0 22 2 13 8 -11 7 -9 9 6 9 15
0 17 2 6 13 -10 10 -15 8 -28 -8 -12 -16 -14 -16 -10 -3 7 21 0 25 -31 20z"/>
<path d="M2392 2805 c0 -16 2 -22 5 -12 2 9 2 23 0 30 -3 6 -5 -1 -5 -18z"/>
<path d="M2513 2823 c-18 -7 -16 -43 2 -43 9 0 15 9 15 25 0 14 -1 25 -2 24
-2 0 -9 -3 -15 -6z"/>
<path d="M5643 2823 c-41 -4 -69 -29 -32 -29 11 0 19 4 19 8 0 17 18 7 23 -12
5 -20 27 -28 27 -10 0 6 -5 10 -12 10 -6 0 -8 3 -5 7 8 8 47 -31 47 -47 0 -5
5 -10 10 -10 6 0 10 7 10 15 0 8 5 15 11 15 6 0 9 8 6 19 -3 15 0 18 17 14 16
-3 18 -2 6 5 -20 14 -76 20 -127 15z m75 -25 c15 -15 16 -28 2 -28 -5 0 -10 6
-10 14 0 8 -6 17 -12 19 -7 3 -8 6 -2 6 5 1 15 -4 22 -11z"/>
<path d="M1260 2799 c0 -9 6 -16 14 -16 8 0 12 6 8 15 -3 10 -1 13 6 8 7 -4
12 -14 12 -21 0 -9 6 -12 15 -9 8 4 15 14 15 24 0 15 -7 18 -35 17 -24 -1 -35
-7 -35 -18z"/>
<path d="M1340 2800 c0 -12 7 -20 18 -20 14 0 15 2 2 10 -10 6 -11 10 -2 10 6
0 12 5 12 10 0 6 -7 10 -15 10 -8 0 -15 -9 -15 -20z"/>
<path d="M1380 2800 c0 -11 2 -20 4 -20 2 0 6 9 9 20 3 11 1 20 -4 20 -5 0 -9
-9 -9 -20z"/>
<path d="M1412 2800 c0 -14 2 -19 5 -12 2 6 2 18 0 25 -3 6 -5 1 -5 -13z"/>
<path d="M1430 2800 c0 -12 7 -20 18 -20 14 0 15 2 2 10 -10 6 -11 10 -2 10 6
0 12 5 12 10 0 6 -7 10 -15 10 -8 0 -15 -9 -15 -20z"/>
<path d="M1471 2798 c0 -22 1 -22 8 -3 l8 20 5 -20 c5 -18 6 -18 7 3 1 13 -5
22 -14 22 -9 0 -15 -9 -14 -22z"/>
<path d="M1510 2800 c0 -14 8 -18 36 -18 25 0 33 3 23 9 -10 6 -10 9 -1 9 6 0
12 4 12 9 0 5 -16 9 -35 9 -27 0 -35 -4 -35 -18z m30 0 c0 -5 -4 -10 -10 -10
-5 0 -10 5 -10 10 0 6 5 10 10 10 6 0 10 -4 10 -10z"/>
<path d="M1734 2800 c1 -8 9 -16 19 -18 12 -3 17 3 16 20 -1 17 -3 18 -6 6 -5
-21 -20 -24 -26 -5 -2 7 -3 6 -3 -3z"/>
<path d="M2032 2800 c0 -14 2 -19 5 -12 2 6 2 18 0 25 -3 6 -5 1 -5 -13z"/>
<path d="M2051 2798 c1 -17 3 -18 6 -5 2 9 8 17 13 17 5 0 11 -8 14 -17 4 -14
4 -14 3 2 -3 30 -37 33 -36 3z"/>
<path d="M2110 2787 c0 -23 3 -28 9 -18 5 8 24 14 42 13 24 -1 29 2 19 8 -10
7 -11 10 -2 10 6 0 12 4 12 9 0 5 -18 9 -40 9 -38 1 -40 0 -40 -31z m30 13 c0
-5 -4 -10 -10 -10 -5 0 -10 5 -10 10 0 6 5 10 10 10 6 0 10 -4 10 -10z"/>
<path d="M2201 2798 c1 -17 3 -18 6 -6 2 10 10 15 19 11 7 -3 11 -9 8 -14 -3
-5 -1 -9 5 -9 5 0 9 9 8 20 -2 30 -47 28 -46 -2z"/>
<path d="M2260 2799 c0 -14 7 -18 25 -17 14 1 25 8 25 15 0 7 5 13 10 13 6 0
10 -6 10 -13 0 -7 11 -14 25 -15 19 -1 25 3 25 18 0 12 -7 20 -16 20 -14 0
-14 -3 -4 -15 11 -13 10 -14 -4 -9 -9 3 -16 10 -16 14 0 5 -18 8 -40 8 -32 0
-40 -4 -40 -19z m30 1 c0 -5 -4 -10 -10 -10 -5 0 -10 5 -10 10 0 6 5 10 10 10
6 0 10 -4 10 -10z"/>
<path d="M2412 2803 c5 -26 33 -28 35 -3 1 14 -4 20 -18 20 -14 0 -19 -6 -17
-17z"/>
<path d="M2460 2800 c0 -12 7 -20 18 -20 14 0 15 2 2 10 -10 6 -11 10 -2 10 6
0 12 5 12 10 0 6 -7 10 -15 10 -8 0 -15 -9 -15 -20z"/>
<path d="M2574 2804 c3 -8 2 -12 -4 -9 -6 3 -10 1 -10 -4 0 -6 7 -11 15 -11 8
0 15 9 15 20 0 11 -5 20 -11 20 -6 0 -8 -7 -5 -16z"/>
<path d="M2602 2800 c0 -14 2 -19 5 -12 2 6 2 18 0 25 -3 6 -5 1 -5 -13z"/>
<path d="M2620 2800 c0 -11 2 -20 4 -20 2 0 6 9 9 20 3 11 1 20 -4 20 -5 0 -9
-9 -9 -20z"/>
<path d="M2670 2800 c0 -11 5 -20 10 -20 6 0 10 7 10 15 0 21 18 19 23 -2 4
-14 5 -12 6 5 1 17 -4 22 -24 22 -18 0 -25 -5 -25 -20z"/>
<path d="M2730 2800 c0 -12 7 -20 18 -20 14 0 15 2 2 10 -10 6 -11 10 -2 10 6
0 12 5 12 10 0 6 -7 10 -15 10 -8 0 -15 -9 -15 -20z"/>
<path d="M4965 2804 c-30 -8 -36 -11 -16 -9 18 3 44 5 57 5 13 0 24 5 24 10 0
12 -1 12 -65 -6z"/>
<path d="M4888 2783 c7 -3 16 -2 19 1 4 3 -2 6 -13 5 -11 0 -14 -3 -6 -6z"/>
<path d="M5070 2780 c0 -5 7 -10 16 -10 8 0 12 5 9 10 -3 6 -10 10 -16 10 -5
0 -9 -4 -9 -10z"/>
<path d="M1220 2701 c0 -28 3 -30 33 -28 17 2 37 6 44 10 6 4 13 2 15 -5 6
-17 28 0 27 20 -1 15 -2 15 -6 -1 -2 -9 -9 -15 -14 -11 -5 3 -6 10 -3 16 4 6
2 8 -4 4 -6 -3 -13 -2 -17 4 -4 7 -12 7 -25 0 -14 -7 -23 -6 -34 6 -15 14 -16
13 -16 -15z m70 -11 c0 -5 -4 -10 -10 -10 -5 0 -10 5 -10 10 0 6 5 10 10 10 6
0 10 -4 10 -10z"/>
<path d="M1350 2702 c0 -18 5 -29 14 -29 18 0 17 29 -1 46 -10 9 -13 6 -13
-17z"/>
<path d="M1392 2690 c0 -14 2 -19 5 -12 2 6 2 18 0 25 -3 6 -5 1 -5 -13z"/>
<path d="M1411 2694 c0 -11 3 -14 6 -6 3 7 2 16 -1 19 -3 4 -6 -2 -5 -13z"/>
<path d="M1432 2690 c0 -14 2 -19 5 -12 2 6 2 18 0 25 -3 6 -5 1 -5 -13z"/>
<path d="M1453 2691 c3 -33 23 -38 29 -6 3 14 1 25 -3 25 -5 0 -9 -8 -10 -17
0 -16 -2 -15 -10 2 -8 18 -8 18 -6 -4z"/>
<path d="M6405 2350 c-3 -5 -1 -10 4 -10 6 0 11 5 11 10 0 6 -2 10 -4 10 -3 0
-8 -4 -11 -10z"/>
<path d="M1720 2070 c0 -5 5 -10 11 -10 5 0 7 5 4 10 -3 6 -8 10 -11 10 -2 0
-4 -4 -4 -10z"/>
<path d="M1570 1435 c0 -27 9 -32 27 -14 8 8 13 8 17 0 4 -6 13 -11 19 -11 7
0 6 4 -3 10 -10 6 -11 10 -2 10 6 0 12 5 12 11 0 6 -9 8 -20 4 -11 -4 -20 -2
-20 4 0 6 -7 11 -15 11 -9 0 -15 -9 -15 -25z m25 6 c3 -5 1 -12 -5 -16 -5 -3
-10 1 -10 9 0 18 6 21 15 7z"/>
<path d="M2253 1444 c-10 -10 -8 -14 8 -19 26 -9 30 -4 16 16 -10 13 -14 14
-24 3z"/>
<path d="M5422 1435 c0 -16 2 -22 5 -12 2 9 2 23 0 30 -3 6 -5 -1 -5 -18z"/>
<path d="M1492 1433 c-10 -10 -9 -13 5 -12 10 0 27 4 38 8 18 7 17 8 -6 13
-14 2 -31 -1 -37 -9z"/>
<path d="M1651 1428 c-1 -20 3 -26 14 -22 8 4 15 10 15 16 0 5 -4 7 -9 3 -5
-3 -12 3 -14 12 -3 11 -5 8 -6 -9z"/>
<path d="M1707 1433 c4 -11 3 -14 -5 -9 -7 4 -12 2 -12 -3 0 -6 7 -11 15 -11
8 0 15 9 15 20 0 11 -4 20 -10 20 -5 0 -6 -7 -3 -17z"/>
<path d="M1730 1430 c0 -11 2 -20 4 -20 2 0 6 9 9 20 3 11 1 20 -4 20 -5 0 -9
-9 -9 -20z"/>
<path d="M1760 1430 c0 -11 4 -20 8 -20 4 0 8 9 8 20 0 11 -4 20 -8 20 -4 0
-8 -9 -8 -20z"/>
<path d="M1812 1430 c0 -14 2 -19 5 -12 2 6 2 18 0 25 -3 6 -5 1 -5 -13z"/>
<path d="M1830 1430 c0 -11 2 -20 4 -20 2 0 6 9 9 20 3 11 1 20 -4 20 -5 0 -9
-9 -9 -20z"/>
<path d="M1855 1440 c-7 -12 2 -30 15 -30 5 0 6 7 3 17 -5 12 -3 14 7 8 9 -5
11 -4 6 3 -9 15 -23 15 -31 2z"/>
<path d="M2326 1434 c-3 -9 -6 -17 -6 -18 0 -1 9 -2 20 -2 11 0 20 1 20 2 0
11 -14 34 -20 34 -4 0 -11 -7 -14 -16z"/>
<path d="M2486 1437 c3 -10 9 -15 12 -12 3 3 0 11 -7 18 -10 9 -11 8 -5 -6z"/>
<path d="M3001 1432 c-1 -29 23 -25 26 4 3 18 2 18 -6 -1 l-8 -20 -5 20 c-5
18 -6 17 -7 -3z"/>
<path d="M3044 1439 c-3 -6 -1 -16 5 -22 9 -9 10 -7 5 7 -6 15 -4 17 6 11 9
-5 11 -4 6 3 -9 15 -13 15 -22 1z"/>
<path d="M3087 1443 c-11 -10 -8 -33 4 -33 5 0 7 5 4 10 -3 6 -2 10 4 10 5 0
13 -4 16 -10 3 -5 10 -10 16 -10 12 0 12 27 -1 35 -6 4 -7 -1 -3 -12 6 -17 5
-17 -14 0 -11 9 -23 14 -26 10z"/>
<path d="M3182 1430 c0 -14 2 -19 5 -12 2 6 2 18 0 25 -3 6 -5 1 -5 -13z"/>
<path d="M3277 1443 c-10 -9 -9 -33 1 -33 4 0 8 9 9 20 2 21 0 24 -10 13z"/>
<path d="M3321 1432 c-1 -29 23 -25 26 4 3 18 2 18 -6 -1 l-8 -20 -5 20 c-5
18 -6 17 -7 -3z"/>
<path d="M3377 1434 c4 -12 3 -15 -5 -10 -7 4 -12 2 -12 -3 0 -6 7 -11 15 -11
17 0 20 25 5 35 -6 4 -7 -1 -3 -11z"/>
<path d="M3402 1430 c0 -14 2 -19 5 -12 2 6 2 18 0 25 -3 6 -5 1 -5 -13z"/>
<path d="M3425 1440 c-8 -13 3 -30 18 -29 9 0 9 2 0 6 -7 2 -13 9 -13 14 0 6
5 7 12 3 7 -4 8 -3 4 4 -9 15 -13 15 -21 2z"/>
<path d="M3720 1435 c0 -6 7 -12 15 -12 8 0 15 6 15 12 0 6 -7 12 -15 12 -8 0
-15 -6 -15 -12z"/>
<path d="M3764 1439 c-3 -6 -1 -16 5 -22 9 -9 10 -7 5 7 -6 15 -4 17 6 11 9
-5 11 -4 6 3 -9 15 -13 15 -22 1z"/>
<path d="M3895 1439 c-4 -5 -4 -13 -1 -16 3 -4 6 0 6 8 0 11 2 11 10 -1 6 -9
10 -10 10 -3 0 17 -17 25 -25 12z"/>
<path d="M3940 1430 c0 -11 4 -20 9 -20 5 0 7 9 4 20 -3 11 -7 20 -9 20 -2 0
-4 -9 -4 -20z"/>
<path d="M3960 1448 c0 -10 30 -38 41 -38 13 0 11 27 -3 36 -7 4 -8 3 -4 -4 9
-16 -7 -15 -22 0 -7 7 -12 9 -12 6z"/>
<path d="M4020 1436 c0 -8 4 -17 8 -20 4 -2 8 4 8 15 0 10 -4 19 -8 19 -4 0
-8 -6 -8 -14z"/>
<path d="M4057 1443 c-10 -9 -9 -33 1 -33 4 0 8 9 8 20 0 23 0 22 -9 13z"/>
<path d="M4470 1428 c0 -17 2 -18 15 -4 8 8 15 16 15 19 0 2 -7 4 -15 4 -8 0
-15 -9 -15 -19z"/>
<path d="M4517 1436 c-4 -10 -5 -21 -2 -24 9 -9 17 6 13 25 -3 17 -4 17 -11
-1z"/>
<path d="M4549 1448 c-6 -21 -5 -38 1 -38 5 0 8 9 7 20 -1 17 -5 26 -8 18z"/>
<path d="M4579 1448 c-6 -21 -5 -38 1 -38 5 0 8 9 7 20 -1 17 -5 26 -8 18z"/>
<path d="M4604 1439 c-3 -6 -1 -16 5 -22 9 -9 10 -7 5 7 -6 15 -4 17 6 11 9
-5 11 -4 6 3 -9 15 -13 15 -22 1z"/>
<path d="M4644 1438 c-3 -5 -3 -12 0 -15 3 -4 6 0 6 8 0 12 2 11 11 -1 8 -11
12 -12 16 -2 2 6 10 9 16 5 7 -3 9 -2 4 2 -10 12 -47 14 -53 3z"/>
<path d="M4715 1440 c-8 -13 3 -30 18 -29 9 0 9 2 0 6 -7 2 -13 9 -13 14 0 6
5 7 12 3 7 -4 8 -3 4 4 -9 15 -13 15 -21 2z"/>
<path d="M5316 1442 c-3 -3 -6 -10 -6 -16 0 -6 5 -4 10 4 8 12 10 12 11 -5 l0
-20 9 20 c6 14 9 15 9 5 1 -24 41 -23 41 1 0 10 -5 19 -11 19 -5 0 -7 -4 -4
-10 7 -11 -8 -14 -19 -3 -9 9 -33 12 -40 5z"/>
<path d="M5730 1428 c0 -17 2 -18 15 -4 8 8 15 16 15 19 0 2 -7 4 -15 4 -8 0
-15 -9 -15 -19z"/>
<path d="M5770 1438 c0 -6 3 -9 6 -5 4 3 13 0 21 -8 8 -8 19 -15 25 -15 6 0 1
9 -12 20 -26 23 -40 26 -40 8z"/>
<path d="M5884 1439 c-3 -6 -1 -16 5 -22 9 -9 10 -7 5 7 -6 15 -4 17 6 11 9
-5 11 -4 6 3 -9 15 -13 15 -22 1z"/>
<path d="M6013 1434 c-3 -8 -3 -18 1 -21 3 -4 6 2 7 13 0 18 1 18 9 -1 l9 -20
1 20 1 20 10 -20 c8 -19 9 -19 6 -1 -2 23 -36 30 -44 10z"/>
<path d="M6070 1433 c0 -15 7 -20 33 -20 17 0 26 2 18 5 -11 4 -11 6 0 13 11
7 11 9 -3 9 -9 0 -23 3 -32 6 -11 4 -16 0 -16 -13z"/>
<path d="M1791 1424 c0 -11 3 -14 6 -6 3 7 2 16 -1 19 -3 4 -6 -2 -5 -13z"/>
<path d="M2391 1424 c0 -11 3 -14 6 -6 3 7 2 16 -1 19 -3 4 -6 -2 -5 -13z"/>
<path d="M2421 1424 c0 -11 3 -14 6 -6 3 7 2 16 -1 19 -3 4 -6 -2 -5 -13z"/>
<path d="M2445 1430 c-3 -5 -1 -10 4 -10 6 0 11 5 11 10 0 6 -2 10 -4 10 -3 0
-8 -4 -11 -10z"/>
<path d="M3151 1424 c0 -11 3 -14 6 -6 3 7 2 16 -1 19 -3 4 -6 -2 -5 -13z"/>
<path d="M3204 1428 c4 -20 26 -21 26 -1 0 14 -2 15 -9 4 -6 -9 -10 -10 -14
-2 -4 8 -5 8 -3 -1z"/>
<path d="M3241 1424 c0 -11 3 -14 6 -6 3 7 2 16 -1 19 -3 4 -6 -2 -5 -13z"/>
<path d="M3824 1428 c4 -20 26 -21 26 -1 0 14 -2 15 -9 4 -6 -9 -10 -10 -14
-2 -4 8 -5 8 -3 -1z"/>
<path d="M3861 1424 c0 -11 3 -14 6 -6 3 7 2 16 -1 19 -3 4 -6 -2 -5 -13z"/>
<path d="M4751 1424 c0 -11 3 -14 6 -6 3 7 2 16 -1 19 -3 4 -6 -2 -5 -13z"/>
<path d="M5841 1424 c0 -11 3 -14 6 -6 3 7 2 16 -1 19 -3 4 -6 -2 -5 -13z"/>
<path d="M5931 1424 c0 -11 3 -14 6 -6 3 7 2 16 -1 19 -3 4 -6 -2 -5 -13z"/>
<path d="M5951 1424 c0 -11 3 -14 6 -6 3 7 2 16 -1 19 -3 4 -6 -2 -5 -13z"/>
<path d="M5974 1428 c4 -20 26 -21 26 -1 0 14 -2 15 -9 4 -6 -9 -10 -10 -14
-2 -4 8 -5 8 -3 -1z"/>
<path d="M6141 1424 c0 -11 3 -14 6 -6 3 7 2 16 -1 19 -3 4 -6 -2 -5 -13z"/>
<path d="M4680 1410 c0 -5 5 -10 10 -10 6 0 10 5 10 10 0 6 -4 10 -10 10 -5 0
-10 -4 -10 -10z"/>
<path d="M1503 1403 c9 -2 23 -2 30 0 6 3 -1 5 -18 5 -16 0 -22 -2 -12 -5z"/>
<path d="M2253 1403 c9 -2 23 -2 30 0 6 3 -1 5 -18 5 -16 0 -22 -2 -12 -5z"/>
<path d="M5703 1066 c-64 -29 -76 -111 -24 -158 l31 -28 271 0 c297 0 315 3
339 59 16 39 5 82 -26 112 -25 24 -27 24 -292 26 -212 2 -274 0 -299 -11z m77
-84 c0 -10 -7 -19 -15 -19 -8 0 -15 9 -15 19 0 10 7 18 15 18 8 0 15 -8 15
-18z m59 -3 c-12 -8 -12 -10 1 -19 8 -5 11 -10 6 -10 -5 0 -18 8 -29 18 -20
16 -20 16 -13 -3 5 -15 4 -17 -5 -8 -16 16 -6 28 27 30 19 1 23 -1 13 -8z m87
-1 c4 -7 3 -8 -4 -4 -7 4 -12 3 -12 -3 0 -5 6 -12 13 -14 9 -4 9 -6 0 -6 -15
-1 -26 16 -18 29 8 13 12 13 21 -2z m34 -20 c0 -19 -16 -5 -17 14 -2 18 0 20
7 8 5 -8 10 -18 10 -22z m17 0 c-3 -7 -5 -2 -5 12 0 14 2 19 5 13 2 -7 2 -19
0 -25z m59 3 c-4 -6 -13 -11 -19 -11 -8 0 -7 3 2 9 8 5 10 14 6 22 -6 11 -5
11 5 2 7 -6 9 -16 6 -22z m39 9 c0 -7 -7 -15 -15 -17 -13 -4 -13 -3 0 6 13 10
13 12 0 22 -13 9 -13 10 0 6 8 -2 15 -10 15 -17z m65 10 c-13 -9 -13 -11 0
-20 8 -5 11 -10 5 -10 -5 0 -17 5 -25 10 -13 9 -13 11 0 20 8 5 20 10 25 10 6
0 3 -5 -5 -10z m38 -4 c-7 -8 -15 -12 -17 -11 -5 6 10 25 20 25 5 0 4 -6 -3
-14z"/>
</g>
</svg>
